<?xml version="1.0" encoding="UTF-8" standalone="no"?>
<svg width="639" height="639" viewBox="0 0 200 200" opacity="0.4" version="1.1" id="svg138"
   sodipodi:docname="mobile2.svg" inkscape:version="1.2.2 (b0a8486541, 2022-12-01)"
   xmlns:inkscape="http://www.inkscape.org/namespaces/inkscape"
   xmlns:sodipodi="http://sodipodi.sourceforge.net/DTD/sodipodi-0.dtd" xmlns="http://www.w3.org/2000/svg"
   xmlns:svg="http://www.w3.org/2000/svg">
   <sodipodi:namedview id="namedview140" pagecolor="#ffffff" bordercolor="#000000" borderopacity="0.25"
      inkscape:showpageshadow="2" inkscape:pageopacity="0.0" inkscape:pagecheckerboard="0" inkscape:deskcolor="#d1d1d1"
      showgrid="false" inkscape:zoom="1.2660407" inkscape:cx="182.85352" inkscape:cy="319.5"
      inkscape:window-width="1920" inkscape:window-height="1011" inkscape:window-x="0" inkscape:window-y="44"
      inkscape:window-maximized="1" inkscape:current-layer="svg138" />
   <rect fill="#ffffff" width="200" height="200" id="rect103" x="-0.24721885" y="0.49443769" />
   <defs id="defs130">
      <linearGradient id="a" gradientUnits="userSpaceOnUse" x1="88" y1="88" x2="0" y2="0">
         <stop offset="0" stop-color="#736677" id="stop105" />
         <stop offset="1" stop-color="#b9abbc" id="stop107" />
      </linearGradient>
      <linearGradient id="b" gradientUnits="userSpaceOnUse" x1="75" y1="76" x2="168" y2="160"
         gradientTransform="rotate(180,99.731763,100.22621)">
         <stop offset="0" stop-color="#858289" id="stop110" />
         <stop offset="0.09" stop-color="#a9a5ad" id="stop112" />
         <stop offset="0.18" stop-color="#c1bdc5" id="stop114" />
         <stop offset="0.31" stop-color="#d4d0d8" id="stop116" />
         <stop offset="0.44" stop-color="#e2dee6" id="stop118" />
         <stop offset="0.59" stop-color="#ede9f1" id="stop120" />
         <stop offset="0.75" stop-color="#f5f1f9" id="stop122" />
         <stop offset="1" stop-color="#FBF7FF" id="stop124" />
      </linearGradient>
      <filter id="c" x="-0.16551724" y="-0.16551724" width="1.3310345" height="1.3310345">
         <feGaussianBlur in="SourceGraphic" stdDeviation="12" id="feGaussianBlur127" />
      </filter>
   </defs>
   <polygon fill="url(#a)" points="174,0 0,174 0,0 " id="polygon132" style="fill:url(#a)"
      transform="rotate(180,99.978991,99.978986)" />
   <path fill="#000000" fill-opacity="0.5" filter="url(#c)"
      d="M 121.8,174 C 59.2,153.1 0,174 0,174 0,174 63.5,100.2 87,80 111.4,59.1 174,0 174,0 c 0,0 -66.1,104.4 -52.2,174 z"
      id="path134" transform="rotate(180,100.84425,101.58591)" />
   <path fill="url(#b)"
      d="m 56.763535,57.75241 c 83.499995,0 142.699995,-31.3 142.699995,-31.3 0,0 -42,66.3 -74.9,99.3 -32.899995,33 -99.099995,74.7 -99.099995,74.7 0,0 31.3,-62.6 31.3,-142.7 z"
      id="path136" style="fill:url(#b)" />
</svg>